<svg width="426" height="206" viewBox="0 0 426 206" fill="none" xmlns="http://www.w3.org/2000/svg">
<g id="logo">
<g id="icon">
<path id="Vector" d="M73.3343 137.516C70.4103 138.11 67.9173 140.306 66.6653 143.387C65.3363 146.654 65.6203 150.314 67.4073 152.936C67.6643 153.315 68.1483 153.777 69.1143 154.669C69.3623 154.898 69.6063 155.118 69.7943 155.299V172.461H82.1183V155.283C82.1793 155.224 82.2473 155.158 82.3193 155.09C83.4173 154.028 85.2553 152.249 85.6953 150.296C86.5783 146.375 85.6723 142.684 83.2083 140.17C80.7883 137.698 77.1933 136.733 73.3343 137.516Z" fill="white"/>
<path id="Vector_2" d="M401.725 61.3531H401.744C401.747 61.8821 402.043 117.568 401.75 122.858C401.737 123.061 401.737 123.266 401.747 123.59L401.61 126.914H425.82V61.3531H401.725Z" fill="white"/>
<path id="Vector_3" d="M358.528 61.3531C358.634 79.8701 358.771 119.107 358.534 122.907C358.522 123.106 358.522 123.308 358.531 123.576L358.378 126.914H382.604V61.3531H358.509H358.528Z" fill="white"/>
<path id="Vector_4" d="M315.315 103.53H301C289.542 103.53 280.959 100.678 275.489 95.0463C269.994 89.4193 267.209 80.5873 267.209 68.7913V61.3533H243.133V68.7913C243.133 92.1673 231.996 103.53 209.086 103.53H194.303V0.794304H170.227V126.914H209.086C220.687 126.914 230.876 124.751 239.375 120.482C246.283 116.997 250.708 112.309 254.722 106.14C263.601 119.587 279.796 126.914 301 126.914H339.391V61.3533H315.315V103.53Z" fill="white"/>
<path id="Vector_5" d="M240.289 137.25C233.63 137.25 228.232 142.648 228.232 149.307C228.232 155.966 233.63 161.365 240.289 161.365C246.948 161.365 252.346 155.967 252.346 149.308C252.346 142.649 246.948 137.25 240.289 137.25Z" fill="white"/>
<path id="Vector_6" d="M269.33 137.25C262.671 137.25 257.273 142.648 257.273 149.307C257.273 155.966 262.671 161.365 269.33 161.365C275.989 161.365 281.387 155.967 281.387 149.308C281.387 142.649 275.989 137.25 269.33 137.25Z" fill="white"/>
<path id="Vector_7" d="M147.985 103.54C143.291 103.54 140.946 102.595 139.795 101.794C138.202 100.697 136.882 98.5057 135.972 95.4237C134.905 91.9557 133.617 86.1107 131.799 76.5287C129.173 61.1437 125.203 48.2307 120.004 38.1577C114.777 27.9497 107.782 19.8197 99.2015 13.9827C91.8225 9.03065 83.5335 5.32365 74.5455 2.96265C72.4495 2.42365 70.3725 1.92465 68.0365 1.48665C66.9445 1.35665 65.8815 1.25364 64.8555 1.15564L64.3845 1.10864C63.6425 1.03064 62.8995 0.969654 62.2575 0.935654C61.5405 0.876654 60.8225 0.837645 60.1055 0.798645C54.2085 0.477645 48.6195 0.61964 43.4795 1.22464C33.2195 2.39264 26.4175 5.15664 22.5185 7.27264C20.2045 8.53164 18.6825 9.66866 17.8875 10.3777C16.5495 11.2287 16.5495 13.1506 16.5495 33.4876V40.4467L21.8265 35.9087C24.4375 33.6607 27.2935 31.7347 30.3225 30.1757C35.4925 27.4897 41.3245 25.7556 47.6715 25.0186C51.0455 24.6116 54.4885 24.4997 57.8575 24.6797L58.9265 24.7437C59.1415 24.7437 59.3605 24.7737 59.7625 24.8127C60.0615 24.8287 60.3615 24.8436 60.7105 24.8796C62.4635 25.0356 64.1595 25.2707 65.8785 25.6037L66.2375 25.6747C66.3805 25.6967 66.5115 25.7326 66.8955 25.8246C73.5725 27.4666 79.6195 30.0696 84.8685 33.5576C90.7845 37.4946 95.5965 43.1036 99.1645 50.2236C102.82 57.5356 105.82 67.6756 108.081 80.3876C108.699 83.7186 109.032 85.8316 109.195 87.5126C110.386 94.2426 111.487 99.6086 112.485 103.54H64.7745C47.9865 103.54 34.2265 106.444 23.8635 112.179C21.4115 113.551 19.2695 114.972 17.3265 116.511C6.13351 125.265 0.45752 138.123 0.45752 154.727C0.45752 171.316 6.13052 184.185 17.3105 192.969C17.9965 193.513 18.7235 194.057 19.6035 194.667C19.9525 194.913 20.3045 195.157 20.6325 195.369C27.3595 199.796 35.8075 202.871 45.7405 204.511L46.2215 204.572C47.9085 204.773 49.5955 204.92 51.2145 205.026C52.5115 205.141 53.8085 205.199 55.1935 205.26C57.3925 205.342 61.0285 205.369 64.8895 205.369C72.3185 205.369 80.5895 205.267 81.1105 205.261L84.2635 205.222V184.45L83.3055 183.511C82.2455 182.474 82.0085 182.256 61.3375 182.657C49.4775 182.914 40.1455 180.586 33.6775 175.805C30.2625 173.351 27.8705 170.187 26.3645 166.123C25.1515 162.884 24.5365 159.05 24.5365 154.727C24.5365 149.385 25.4695 144.81 27.3095 141.125C28.7785 138.189 30.8835 135.723 33.5745 133.79C39.8525 129.227 50.3475 126.913 64.7745 126.913H151.4V106.734L151.179 103.54H147.985Z" fill="white"/>
<path id="Vector_8" d="M108.384 189.679C107.711 188.937 106.915 188.352 105.996 187.929C105.077 187.503 104.148 187.291 103.21 187.291C102.291 187.291 101.428 187.463 100.623 187.81C99.8166 188.155 99.1116 188.636 98.4996 189.255C97.8896 189.874 97.4176 190.596 97.0806 191.417C96.7446 192.241 96.5776 193.128 96.5776 194.084C96.5776 195.022 96.7446 195.902 97.0806 196.724C97.4176 197.547 97.8896 198.267 98.4996 198.886C99.1116 199.507 99.8166 199.993 100.623 200.347C101.428 200.701 102.291 200.878 103.21 200.878C104.148 200.878 105.068 200.678 105.971 200.28C106.871 199.882 107.676 199.337 108.384 198.648L110.241 200.584C109.622 201.204 108.919 201.743 108.133 202.204C107.346 202.663 106.522 203.016 105.666 203.265C104.807 203.512 103.937 203.636 103.052 203.636C101.689 203.636 100.425 203.393 99.2556 202.907C98.0906 202.421 97.0686 201.743 96.1906 200.878C95.3156 200.01 94.6316 198.997 94.1366 197.838C93.6406 196.679 93.3936 195.437 93.3936 194.11C93.3936 192.784 93.6406 191.55 94.1366 190.41C94.6316 189.269 95.3256 188.264 96.2186 187.398C97.1126 186.533 98.1456 185.86 99.3236 185.381C100.499 184.903 101.777 184.666 103.157 184.666C104.041 184.666 104.909 184.78 105.756 185.011C106.606 185.241 107.411 185.567 108.172 185.993C108.933 186.416 109.613 186.931 110.216 187.531L108.384 189.679Z" fill="white"/>
<path id="Vector_9" d="M125.896 195.597H129.001V203.424H125.896V195.597ZM118.97 184.85H122.128L127.434 194.031L132.636 184.85H135.819L127.646 199.498H127.197L118.97 184.85Z" fill="white"/>
<path id="Vector_10" d="M154.151 200.745C155.373 200.761 156.327 200.529 157.018 200.04C157.707 199.553 158.051 198.86 158.051 197.957C158.051 197.11 157.707 196.442 157.018 195.956C156.327 195.469 155.373 195.234 154.151 195.253H149.375V200.745H154.151ZM154.151 192.572C155.142 192.572 155.92 192.346 156.488 191.894C157.053 191.445 157.335 190.812 157.335 189.998C157.335 189.202 157.053 188.587 156.488 188.155C155.92 187.722 155.142 187.512 154.151 187.531H149.375V192.572H154.151ZM154.312 184.85C155.601 184.85 156.713 185.036 157.642 185.408C158.57 185.778 159.285 186.309 159.79 187C160.295 187.689 160.546 188.522 160.546 189.495C160.546 190.538 160.255 191.431 159.671 192.174C159.087 192.916 158.291 193.403 157.283 193.633C158.522 193.845 159.494 194.368 160.202 195.199C160.909 196.03 161.263 197.073 161.263 198.329C161.263 199.391 160.988 200.303 160.439 201.061C159.892 201.823 159.113 202.407 158.105 202.814C157.097 203.221 155.894 203.424 154.498 203.424H146.245V184.85H154.312Z" fill="white"/>
<path id="Vector_11" d="M172.939 184.85H186.204V187.531H176.069V192.758H185.143V195.411H176.069V200.745H186.523V203.424H172.939V184.85Z" fill="white"/>
<path id="Vector_12" d="M205.944 196.551H209.023L213.64 203.423H210.084L205.944 196.551ZM205.839 195.092C207.271 195.092 208.381 194.778 209.17 194.149C209.956 193.523 210.35 192.555 210.35 191.245C210.35 189.988 209.956 189.055 209.17 188.445C208.381 187.835 207.271 187.531 205.839 187.531H201.434V195.092H205.839ZM205.839 184.85C208.227 184.85 210.07 185.403 211.371 186.509C212.67 187.614 213.321 189.167 213.321 191.166C213.321 193.253 212.67 194.875 211.371 196.034C210.07 197.193 208.227 197.773 205.839 197.773H201.434V203.423H198.304V184.85H205.839Z" fill="white"/>
<path id="Vector_13" d="M251.872 189.148C251.199 188.724 250.536 188.389 249.882 188.14C249.226 187.894 248.607 187.717 248.025 187.61C247.441 187.503 246.91 187.451 246.431 187.451C245.512 187.451 244.778 187.628 244.229 187.982C243.682 188.336 243.408 188.848 243.408 189.52C243.408 190.121 243.589 190.612 243.95 190.993C244.313 191.373 244.79 191.682 245.384 191.922C245.977 192.159 246.631 192.385 247.348 192.597C248.065 192.811 248.774 193.044 249.484 193.302C250.189 193.558 250.846 193.889 251.446 194.296C252.049 194.703 252.526 195.22 252.88 195.848C253.233 196.476 253.41 197.268 253.41 198.222C253.41 199.32 253.11 200.27 252.507 201.075C251.907 201.88 251.078 202.504 250.026 202.946C248.975 203.388 247.767 203.61 246.405 203.61C245.432 203.61 244.485 203.482 243.566 203.223C242.647 202.967 241.783 202.618 240.98 202.176C240.175 201.734 239.454 201.222 238.816 200.638L240.171 198.064C240.806 198.648 241.483 199.144 242.2 199.548C242.917 199.956 243.64 200.265 244.376 200.479C245.109 200.691 245.805 200.796 246.459 200.796C247.555 200.796 248.409 200.584 249.019 200.161C249.628 199.735 249.933 199.144 249.933 198.383C249.933 197.763 249.752 197.263 249.391 196.884C249.028 196.502 248.551 196.188 247.957 195.941C247.364 195.695 246.71 195.473 245.993 195.278C245.279 195.082 244.562 194.857 243.845 194.601C243.128 194.345 242.475 194.021 241.881 193.633C241.288 193.244 240.81 192.739 240.45 192.12C240.087 191.501 239.905 190.714 239.905 189.76C239.905 188.715 240.187 187.81 240.755 187.04C241.32 186.269 242.112 185.673 243.128 185.248C244.145 184.824 245.325 184.612 246.671 184.612C247.874 184.612 249.04 184.789 250.173 185.143C251.304 185.497 252.305 185.955 253.171 186.523L251.872 189.148Z" fill="white"/>
<path id="Vector_14" d="M265.033 184.85H278.298V187.531H268.163V192.758H277.237V195.411H268.163V200.745H278.617V203.424H265.033V184.85Z" fill="white"/>
<path id="Vector_15" d="M303.849 189.679C303.177 188.937 302.381 188.352 301.461 187.929C300.542 187.503 299.613 187.291 298.676 187.291C297.756 187.291 296.893 187.463 296.088 187.81C295.282 188.155 294.577 188.636 293.965 189.255C293.355 189.874 292.883 190.596 292.546 191.417C292.21 192.241 292.043 193.128 292.043 194.084C292.043 195.022 292.21 195.902 292.546 196.724C292.883 197.547 293.355 198.267 293.965 198.886C294.577 199.507 295.282 199.993 296.088 200.347C296.893 200.701 297.756 200.878 298.676 200.878C299.613 200.878 300.533 200.678 301.436 200.28C302.336 199.882 303.142 199.337 303.849 198.648L305.706 200.584C305.087 201.204 304.384 201.743 303.598 202.204C302.811 202.663 301.987 203.016 301.131 203.265C300.272 203.512 299.402 203.636 298.517 203.636C297.154 203.636 295.89 203.393 294.722 202.907C293.556 202.421 292.534 201.743 291.657 200.878C290.781 200.01 290.097 198.997 289.602 197.838C289.106 196.679 288.859 195.437 288.859 194.11C288.859 192.784 289.106 191.55 289.602 190.41C290.097 189.269 290.791 188.264 291.685 187.398C292.578 186.533 293.611 185.86 294.789 185.381C295.964 184.903 297.242 184.666 298.622 184.666C299.506 184.666 300.375 184.78 301.222 185.011C302.071 185.241 302.876 185.567 303.637 185.993C304.398 186.416 305.078 186.931 305.681 187.531L303.849 189.679Z" fill="white"/>
<path id="Vector_16" d="M319.612 195.809C319.612 197.419 320.052 198.683 320.938 199.602C321.823 200.524 323.017 200.982 324.52 200.982C326.005 200.982 327.182 200.529 328.048 199.616C328.914 198.706 329.349 197.436 329.349 195.809V184.85H332.479V195.809C332.479 197.419 332.16 198.811 331.525 199.989C330.888 201.164 329.973 202.067 328.779 202.693C327.585 203.321 326.165 203.636 324.52 203.636C322.856 203.636 321.425 203.321 320.222 202.693C319.018 202.067 318.095 201.164 317.448 199.989C316.803 198.811 316.479 197.419 316.479 195.809V184.85H319.612V195.809Z" fill="white"/>
<path id="Vector_17" d="M352.589 196.551H355.668L360.285 203.423H356.729L352.589 196.551ZM352.484 195.092C353.916 195.092 355.026 194.778 355.815 194.149C356.601 193.523 356.995 192.555 356.995 191.245C356.995 189.988 356.601 189.055 355.815 188.445C355.026 187.835 353.916 187.531 352.484 187.531H348.079V195.092H352.484ZM352.484 184.85C354.872 184.85 356.715 185.403 358.016 186.509C359.315 187.614 359.966 189.167 359.966 191.166C359.966 193.253 359.315 194.875 358.016 196.034C356.715 197.193 354.872 197.773 352.484 197.773H348.079V203.423H344.949V184.85H352.484Z" fill="white"/>
<path id="Vector_18" d="M372.091 184.85H375.221V203.424H372.091V184.85Z" fill="white"/>
<path id="Vector_19" d="M385.864 184.85H400.747V187.531H394.857V203.424H391.726V187.531H385.864V184.85Z" fill="white"/>
<path id="Vector_20" d="M415.897 195.597H419.001V203.424H415.897V195.597ZM408.971 184.85H412.129L417.435 194.031L422.637 184.85H425.82L417.647 199.498H417.198L408.971 184.85Z" fill="white"/>
</g>
</g>
</svg>
